<svg viewBox="0 0 70.88 70.58"><path d="M991.83,103.64l-12.49,12.67c-1.28-1.3,0-1.69-.9-2.58L962.72,97.78c-1.26-1.28.9-6.67,0.27-7.31s-4.44,4.75-8.78.35L966.7,78.15s6.69-6,13.1.53c4.86,4.92,2.08,8.68,2.82,9.42s5.18-3.1,10.51,2.31C999,96.36,991.83,103.64,991.83,103.64Zm-4.22-9.39c-3.17-3.21-8.92.5-10.39-1-1.14-1.15,1.71-7.1-1.11-10-3-3.07-6.57.46-6.57,0.46l-5.47,5.6,17,17.29,6.37-6.46S990.48,97.16,987.61,94.24ZM950.49,83.35s-2.92-3.28-6-.31,0.4,9.37-.86,10.65-6.92-1.87-9.84,1.1-1.74,4.44-1.31,4.88l5.66,5.74L934,109.61l-5.66-5.74c-0.93-.94-5.37-6.55.86-12.87,4.38-4.47,9.09-2.55,9.4-2.87s-3.23-5.16,2.17-10.65,12.47,0.68,12.47.68l5.88,6-3.93,4Zm2.63,8.58,4.15,4.21-11.14,11.3L942,103.23Zm-12.45,12.63c1.28,1.3,0,1.69.9,2.58l15.72,15.94c1.26,1.28-.9,6.67-0.27,7.31s4.44-4.75,8.78-.35L953.3,142.72s-6.69,6-13.1-.53c-4.86-4.92-2.08-8.68-2.82-9.42s-5.18,3.1-10.51-2.31c-5.87-6,1.3-13.23,1.3-13.23Zm-8.27,22.06c3.17,3.21,8.92-.5,10.39,1,1.14,1.15-1.71,7.1,1.11,10,3,3.07,6.57-.46,6.57-0.46l5.47-5.6-17-17.29-6.37,6.46S929.52,123.71,932.39,126.63Zm30.56-2.12,11.14-11.3,4.15,4.21-11.14,11.3Zm6.56,13.14s2.92,3.28,6,.31-0.4-9.37.86-10.65,6.92,1.87,9.84-1.1,1.74-4.44,1.31-4.88l-5.66-5.74,4.15-4.21,5.66,5.74c0.93,0.94,5.37,6.55-.86,12.87-4.38,4.47-9.09,2.55-9.4,2.87s3.23,5.16-2.17,10.65-12.47-.68-12.47-0.68l-5.88-6,3.93-4Z" transform="translate(-924.56 -75.21)" style="fill-rule:evenodd"/></svg>